<svg width="40" height="24" viewBox="0 0 40 24" fill="none" xmlns="http://www.w3.org/2000/svg">
<mask id="path-1-outside-1_13_2" maskUnits="userSpaceOnUse" x="0" y="0" width="40" height="24" fill="black">
<rect fill="white" width="40" height="24"/>
<path d="M10.1453 3.77637C10.3175 3.96793 10.4249 4.28992 10.4674 4.74233C10.4769 5.14858 10.2824 5.53985 9.88376 5.91615C9.58658 6.18856 9.27879 6.51984 8.9604 6.90998C8.6019 7.29319 8.25639 7.71911 7.92385 8.18773C7.59131 8.65635 7.29888 9.13189 7.04655 9.61434C6.79422 10.0968 6.62562 10.5735 6.54077 11.0444C6.43471 11.633 6.46192 12.2851 6.62243 13.0006C6.79001 13.6769 7.09203 14.2955 7.52851 14.8563C8.36842 15.9318 9.29082 16.4349 10.2957 16.3655C11.2675 16.25 12.2535 15.712 13.2535 14.7517C13.9021 14.1353 14.5814 13.4635 15.2913 12.7363C15.9611 12.0022 16.6274 11.2877 17.2902 10.5928C17.96 9.85869 18.5991 9.17998 19.2076 8.55667C19.8232 7.89412 20.361 7.31929 20.8209 6.83219C21.4294 6.20888 22.0709 5.63173 22.7455 5.10074C23.42 4.56975 24.1607 4.13109 24.9674 3.78474C25.734 3.43147 26.5831 3.19361 27.5149 3.07114C28.4466 2.94868 29.4739 2.98432 30.5968 3.17806C32.7529 3.83331 34.3618 5.00106 35.4235 6.68132C36.4523 8.31541 36.9774 10.1054 36.9989 12.0512C37.0227 13.7547 36.6691 15.3728 35.9381 16.9056C35.2141 18.3991 34.1315 19.588 32.6904 20.4723C32.3201 20.6916 31.8365 20.851 31.2397 20.9503C30.6429 21.0496 30.2384 21.0001 30.0261 20.8016C29.7076 20.5039 29.5412 20.0503 29.527 19.4409C29.4726 18.8246 29.574 18.3768 29.8311 18.0975C30.8359 17.3403 31.6484 16.388 32.2686 15.2407C32.8487 14.0865 33.0986 12.8146 33.0182 11.4251C32.9614 10.3633 32.6688 9.46313 32.1403 8.72456C31.5717 7.97907 30.8804 7.4552 30.0666 7.15293C29.2197 6.8045 28.2962 6.76654 27.2961 7.03905C26.2629 7.2654 25.2699 7.84259 24.317 8.77064C22.7839 10.165 21.3099 11.691 19.8948 13.3485C18.4867 14.9668 16.9112 16.5966 15.1682 18.238C14.2036 19.0022 13.2011 19.517 12.1609 19.7826C11.1277 20.009 10.15 20.0426 9.22762 19.8834C8.26517 19.7174 7.39823 19.3655 6.6268 18.8278C5.81526 18.2831 5.13227 17.5988 4.57781 16.7749C3.98325 15.944 3.55027 15.0196 3.27885 14.0017C3.00743 12.9838 2.93415 11.8989 3.05901 10.7471C3.26165 9.1636 3.87475 7.71163 4.89832 6.39118C5.88179 5.0638 6.99622 4.04225 8.24161 3.32652C8.51758 3.17183 8.83248 3.14525 9.18633 3.24676C9.54725 3.30903 9.86691 3.48557 10.1453 3.77637Z"/>
</mask>
<path d="M10.1453 3.77637C10.3175 3.96793 10.4249 4.28992 10.4674 4.74233C10.4769 5.14858 10.2824 5.53985 9.88376 5.91615C9.58658 6.18856 9.27879 6.51984 8.9604 6.90998C8.6019 7.29319 8.25639 7.71911 7.92385 8.18773C7.59131 8.65635 7.29888 9.13189 7.04655 9.61434C6.79422 10.0968 6.62562 10.5735 6.54077 11.0444C6.43471 11.633 6.46192 12.2851 6.62243 13.0006C6.79001 13.6769 7.09203 14.2955 7.52851 14.8563C8.36842 15.9318 9.29082 16.4349 10.2957 16.3655C11.2675 16.25 12.2535 15.712 13.2535 14.7517C13.9021 14.1353 14.5814 13.4635 15.2913 12.7363C15.9611 12.0022 16.6274 11.2877 17.2902 10.5928C17.96 9.85869 18.5991 9.17998 19.2076 8.55667C19.8232 7.89412 20.361 7.31929 20.8209 6.83219C21.4294 6.20888 22.0709 5.63173 22.7455 5.10074C23.42 4.56975 24.1607 4.13109 24.9674 3.78474C25.734 3.43147 26.5831 3.19361 27.5149 3.07114C28.4466 2.94868 29.4739 2.98432 30.5968 3.17806C32.7529 3.83331 34.3618 5.00106 35.4235 6.68132C36.4523 8.31541 36.9774 10.1054 36.9989 12.0512C37.0227 13.7547 36.6691 15.3728 35.9381 16.9056C35.2141 18.3991 34.1315 19.588 32.6904 20.4723C32.3201 20.6916 31.8365 20.851 31.2397 20.9503C30.6429 21.0496 30.2384 21.0001 30.0261 20.8016C29.7076 20.5039 29.5412 20.0503 29.527 19.4409C29.4726 18.8246 29.574 18.3768 29.8311 18.0975C30.8359 17.3403 31.6484 16.388 32.2686 15.2407C32.8487 14.0865 33.0986 12.8146 33.0182 11.4251C32.9614 10.3633 32.6688 9.46313 32.1403 8.72456C31.5717 7.97907 30.8804 7.4552 30.0666 7.15293C29.2197 6.8045 28.2962 6.76654 27.2961 7.03905C26.2629 7.2654 25.2699 7.84259 24.317 8.77064C22.7839 10.165 21.3099 11.691 19.8948 13.3485C18.4867 14.9668 16.9112 16.5966 15.1682 18.238C14.2036 19.0022 13.2011 19.517 12.1609 19.7826C11.1277 20.009 10.15 20.0426 9.22762 19.8834C8.26517 19.7174 7.39823 19.3655 6.6268 18.8278C5.81526 18.2831 5.13227 17.5988 4.57781 16.7749C3.98325 15.944 3.55027 15.0196 3.27885 14.0017C3.00743 12.9838 2.93415 11.8989 3.05901 10.7471C3.26165 9.1636 3.87475 7.71163 4.89832 6.39118C5.88179 5.0638 6.99622 4.04225 8.24161 3.32652C8.51758 3.17183 8.83248 3.14525 9.18633 3.24676C9.54725 3.30903 9.86691 3.48557 10.1453 3.77637Z" fill="url(#paint0_linear_13_2)"/>
<path d="M10.1453 3.77637L12.3762 1.77062L12.3448 1.73571L12.3124 1.7018L10.1453 3.77637ZM10.4674 4.74233L13.4666 4.67223L13.4641 4.56669L13.4543 4.46159L10.4674 4.74233ZM9.88376 5.91615L11.9109 8.12762L11.9272 8.11274L11.9432 8.09762L9.88376 5.91615ZM8.9604 6.90998L11.1512 8.95945L11.2205 8.88539L11.2846 8.80681L8.9604 6.90998ZM7.92385 8.18773L10.3704 9.92387L10.3705 9.92386L7.92385 8.18773ZM7.04655 9.61434L4.38818 8.22398L4.38818 8.22399L7.04655 9.61434ZM6.54077 11.0444L3.58832 10.5124L6.54077 11.0444ZM6.62243 13.0006L3.69517 13.6572L3.70247 13.6898L3.71049 13.7221L6.62243 13.0006ZM7.52851 14.8563L5.16098 16.6988L5.16407 16.7028L7.52851 14.8563ZM10.2957 16.3655L10.5023 19.3584L10.5763 19.3533L10.6499 19.3445L10.2957 16.3655ZM13.2535 14.7517L11.1869 12.577L11.1812 12.5824L11.1755 12.5879L13.2535 14.7517ZM15.2913 12.7363L17.438 14.832L17.4733 14.7957L17.5074 14.7583L15.2913 12.7363ZM17.2902 10.5928L19.4611 12.6633L19.484 12.6393L19.5063 12.6149L17.2902 10.5928ZM19.2076 8.55667L21.3543 10.6523L21.3802 10.6258L21.4054 10.5986L19.2076 8.55667ZM20.8209 6.83219L18.6742 4.73651L18.6567 4.75442L18.6396 4.77262L20.8209 6.83219ZM22.7455 5.10074L24.601 7.45805L24.601 7.45805L22.7455 5.10074ZM24.9674 3.78474L26.1509 6.5414L26.1871 6.52585L26.2229 6.50935L24.9674 3.78474ZM27.5149 3.07114L27.9058 6.04556L27.9058 6.04556L27.5149 3.07114ZM30.5968 3.17806L31.4691 0.30768L31.2906 0.253451L31.1069 0.221741L30.5968 3.17806ZM35.4235 6.68132L37.9624 5.08306L37.9597 5.07877L35.4235 6.68132ZM36.9989 12.0512L33.999 12.0844L33.9992 12.0932L36.9989 12.0512ZM35.9381 16.9056L38.6376 18.2142L38.6418 18.2056L38.6459 18.1971L35.9381 16.9056ZM32.6904 20.4723L34.2192 23.0535L34.2394 23.0416L34.2593 23.0293L32.6904 20.4723ZM31.2397 20.9503L30.7472 17.991L30.7472 17.991L31.2397 20.9503ZM30.0261 20.8016L32.0747 18.61L32.0747 18.61L30.0261 20.8016ZM29.527 19.4409L32.5261 19.3709L32.5239 19.274L32.5154 19.1774L29.527 19.4409ZM29.8311 18.0975L28.0255 15.7017L27.808 15.8656L27.6236 16.0659L29.8311 18.0975ZM32.2686 15.2407L34.9076 16.6674L34.9289 16.628L34.949 16.588L32.2686 15.2407ZM33.0182 11.4251L30.0224 11.5852L30.0232 11.5984L33.0182 11.4251ZM32.1403 8.72456L34.58 6.97877L34.5534 6.94157L34.5256 6.9052L32.1403 8.72456ZM30.0666 7.15293L28.9251 9.9273L28.9733 9.9471L29.0221 9.96523L30.0666 7.15293ZM27.2961 7.03905L27.9381 9.96954L28.0119 9.95338L28.0847 9.93352L27.2961 7.03905ZM24.317 8.77064L26.3356 10.99L26.3735 10.9555L26.4102 10.9198L24.317 8.77064ZM19.8948 13.3485L22.158 15.3177L22.1672 15.3071L22.1764 15.2964L19.8948 13.3485ZM15.1682 18.238L17.031 20.5896L17.1316 20.5099L17.225 20.422L15.1682 18.238ZM12.1609 19.7826L12.8029 22.7131L12.8532 22.7021L12.903 22.6894L12.1609 19.7826ZM9.22762 19.8834L9.73771 16.9271L9.22762 19.8834ZM6.6268 18.8278L8.34229 16.3666L8.32056 16.3515L8.29857 16.3367L6.6268 18.8278ZM4.57781 16.7749L7.06677 15.1L7.04266 15.0642L7.01753 15.0291L4.57781 16.7749ZM3.27885 14.0017L0.380127 14.7746L0.380127 14.7746L3.27885 14.0017ZM3.05901 10.7471L0.0832758 10.3663L0.0796003 10.395L0.0764798 10.4238L3.05901 10.7471ZM4.89832 6.39118L7.26938 8.22913L7.28937 8.20334L7.3088 8.17712L4.89832 6.39118ZM8.24161 3.32652L6.77473 0.709607L6.76071 0.717463L6.74678 0.725468L8.24161 3.32652ZM9.18633 3.24676L8.35904 6.13044L8.51567 6.17537L8.67624 6.20308L9.18633 3.24676ZM7.91438 5.78212C7.65258 5.49092 7.5463 5.22222 7.50907 5.11058C7.47089 4.9961 7.47399 4.95293 7.48058 5.02307L13.4543 4.46159C13.3923 3.8023 13.2 2.68692 12.3762 1.77062L7.91438 5.78212ZM7.46824 4.81242C7.46075 4.4922 7.53951 4.21167 7.64237 4.00479C7.69024 3.90853 7.7375 3.83961 7.77064 3.79672C7.78727 3.7752 7.80083 3.7596 7.80994 3.74965C7.81903 3.7397 7.82421 3.73481 7.82434 3.73468L11.9432 8.09762C12.7342 7.35084 13.5022 6.19561 13.4666 4.67223L7.46824 4.81242ZM7.85659 3.70468C7.43059 4.09519 7.02446 4.53737 6.63617 5.01314L11.2846 8.80681C11.5331 8.50231 11.7426 8.28194 11.9109 8.12762L7.85659 3.70468ZM6.76959 4.8605C6.31067 5.35106 5.88063 5.88315 5.47725 6.4516L10.3705 9.92386C10.6321 9.55508 10.8931 9.23532 11.1512 8.95945L6.76959 4.8605ZM5.47726 6.45159C5.0707 7.02451 4.70657 7.61522 4.38818 8.22398L9.70491 11.0047C9.89118 10.6486 10.1119 10.2882 10.3704 9.92387L5.47726 6.45159ZM4.38818 8.22399C4.01397 8.93948 3.73397 9.70407 3.58832 10.5124L9.49322 11.5764C9.51728 11.4429 9.57446 11.2541 9.70491 11.0047L4.38818 8.22399ZM3.58832 10.5124C3.39717 11.5732 3.46632 12.637 3.69517 13.6572L9.54969 12.344C9.45753 11.9331 9.47224 11.6928 9.49322 11.5764L3.58832 10.5124ZM3.71049 13.7221C3.98114 14.8144 4.47188 15.8134 5.16098 16.6988L9.89603 13.0138C9.71219 12.7776 9.59888 12.5394 9.53437 12.2791L3.71049 13.7221ZM5.16407 16.7028C6.37822 18.2575 8.16979 19.5194 10.5023 19.3584L10.089 13.3726C10.1221 13.3704 10.1677 13.3725 10.2161 13.3834C10.2636 13.3941 10.2884 13.4074 10.2867 13.4065C10.2756 13.4005 10.1327 13.3168 9.89294 13.0098L5.16407 16.7028ZM10.6499 19.3445C12.4906 19.1257 14.0515 18.1447 15.3315 16.9155L11.1755 12.5879C10.4555 13.2794 10.0445 13.3743 9.94151 13.3865L10.6499 19.3445ZM15.3201 16.9263C15.9993 16.2809 16.7053 15.5824 17.438 14.832L13.1446 10.6406C12.4575 11.3445 11.805 11.9896 11.1869 12.577L15.3201 16.9263ZM17.5074 14.7583C18.1629 14.04 18.8141 13.3417 19.4611 12.6633L15.1193 8.52225C14.4407 9.23366 13.7594 9.96434 13.0752 10.7142L17.5074 14.7583ZM19.5063 12.6149C20.1565 11.9023 20.7724 11.2484 21.3543 10.6523L17.061 6.46099C16.4259 7.11152 15.7635 7.81509 15.074 8.57075L19.5063 12.6149ZM21.4054 10.5986C22.0173 9.9401 22.5493 9.37141 23.0022 8.89176L18.6396 4.77262C18.1726 5.26717 17.6291 5.84814 17.0098 6.51469L21.4054 10.5986ZM22.9675 8.92786C23.4861 8.39663 24.0306 7.90708 24.601 7.45805L20.8899 2.74344C20.1112 3.35638 19.3726 4.02112 18.6742 4.73651L22.9675 8.92786ZM24.601 7.45805C25.0654 7.09256 25.5792 6.78686 26.1509 6.5414L23.7838 1.02808C22.7421 1.47531 21.7747 2.04694 20.8899 2.74344L24.601 7.45805ZM26.2229 6.50935C26.6864 6.29577 27.2397 6.13312 27.9058 6.04556L27.1239 0.0967263C25.9266 0.254101 24.7815 0.567177 23.7118 1.06013L26.2229 6.50935ZM27.9058 6.04556C28.4823 5.96979 29.2006 5.98149 30.0867 6.13438L31.1069 0.221741C29.7472 -0.0128491 28.4109 -0.072431 27.1239 0.0967265L27.9058 6.04556ZM29.7245 6.04844C31.29 6.52421 32.2617 7.29361 32.8874 8.28386L37.9597 5.07877C36.4619 2.7085 34.2158 1.1424 31.4691 0.30768L29.7245 6.04844ZM32.8847 8.27957C33.6157 9.44073 33.9836 10.6882 33.9991 12.0844L39.9987 12.0181C39.9711 9.52252 39.2888 7.1901 37.9624 5.08306L32.8847 8.27957ZM33.9992 12.0932C34.0166 13.3372 33.7622 14.4989 33.2303 15.6142L38.6459 18.1971C39.576 16.2468 40.0288 14.1722 39.9986 12.0093L33.9992 12.0932ZM33.2385 15.597C32.7694 16.5649 32.0839 17.3247 31.1214 17.9153L34.2593 23.0293C36.1792 21.8514 37.6588 20.2334 38.6376 18.2142L33.2385 15.597ZM31.1615 17.8911C31.193 17.8725 31.1834 17.8832 31.1111 17.907C31.0392 17.9307 30.9215 17.962 30.7472 17.991L31.7323 23.9096C32.5577 23.7722 33.4287 23.5217 34.2192 23.0535L31.1615 17.8911ZM30.7472 17.991C30.6091 18.014 30.6687 17.9872 30.8536 18.0099C31.0352 18.0321 31.5636 18.1322 32.0747 18.61L27.9774 22.9932C28.7009 23.6694 29.5377 23.8935 30.1239 23.9654C30.7133 24.0376 31.2736 23.9859 31.7323 23.9096L30.7472 17.991ZM32.0747 18.61C32.2943 18.8153 32.4181 19.0392 32.4789 19.205C32.5342 19.3558 32.5275 19.4288 32.5261 19.3709L26.5278 19.511C26.5532 20.5996 26.8675 21.9556 27.9774 22.9932L32.0747 18.61ZM32.5154 19.1774C32.5067 19.0789 32.5254 19.1409 32.4882 19.3052C32.4473 19.4857 32.3325 19.8096 32.0385 20.1291L27.6236 16.0659C26.5207 17.2644 26.4553 18.7602 26.5386 19.7044L32.5154 19.1774ZM31.6366 20.4933C32.9983 19.4671 34.0901 18.1796 34.9076 16.6674L29.6295 13.814C29.2066 14.5964 28.6734 15.2134 28.0255 15.7017L31.6366 20.4933ZM34.949 16.588C35.7839 14.927 36.1215 13.1249 36.0131 11.2518L30.0232 11.5984C30.0756 12.5043 29.9135 13.246 29.5881 13.8935L34.949 16.588ZM36.0139 11.2649C35.9319 9.73166 35.4945 8.25683 34.58 6.97877L29.7005 10.4703C29.843 10.6694 29.9909 10.9949 30.0224 11.5852L36.0139 11.2649ZM34.5256 6.9052C33.6416 5.74615 32.4994 4.85625 31.1111 4.34063L29.0221 9.96523C29.2615 10.0541 29.5017 10.212 29.7549 10.5439L34.5256 6.9052ZM31.208 4.37856C29.6689 3.74532 28.058 3.72208 26.5074 4.14457L28.0847 9.93352C28.5344 9.811 28.7705 9.86367 28.9251 9.9273L31.208 4.37856ZM26.654 4.10855C24.9489 4.48213 23.4754 5.4026 22.2239 6.62152L26.4102 10.9198C27.0644 10.2826 27.5769 10.0487 27.9381 9.96954L26.654 4.10855ZM22.2985 6.55131C20.6674 8.03478 19.106 9.65206 17.6132 11.4006L22.1764 15.2964C23.5138 13.7299 24.9005 12.2953 26.3356 10.99L22.2985 6.55131ZM17.6315 11.3793C16.2957 12.9146 14.7903 14.473 13.1115 16.054L17.225 20.422C19.0321 18.7202 20.6778 17.019 22.158 15.3177L17.6315 11.3793ZM13.3054 15.8864C12.623 16.427 11.995 16.7287 11.4187 16.8759L12.903 22.6894C14.4073 22.3053 15.7841 21.5773 17.031 20.5896L13.3054 15.8864ZM11.5189 16.8521C10.8155 17.0062 10.2314 17.0123 9.73771 16.9271L8.71753 22.8397C10.0685 23.0728 11.44 23.0117 12.8029 22.7131L11.5189 16.8521ZM9.73771 16.9271C9.1913 16.8328 8.73902 16.6432 8.34229 16.3666L4.91131 21.2889C6.05744 22.0878 7.33904 22.6019 8.71753 22.8397L9.73771 16.9271ZM8.29857 16.3367C7.81502 16.0122 7.40785 15.6069 7.06677 15.1L2.08886 18.4497C2.85668 19.5908 3.81551 20.554 4.95503 21.3188L8.29857 16.3367ZM7.01753 15.0291C6.63988 14.5013 6.35879 13.9084 6.17757 13.2288L0.380127 14.7746C0.741736 16.1308 1.32662 17.3866 2.13809 18.5206L7.01753 15.0291ZM6.17757 13.2288C6.01044 12.602 5.95254 11.8914 6.04154 11.0704L0.0764798 10.4238C-0.0842307 11.9064 0.00442189 13.3656 0.380127 14.7746L6.17757 13.2288ZM6.03474 11.1279C6.16621 10.1006 6.55783 9.14706 7.26938 8.22913L2.52726 4.55322C1.19167 6.2762 0.357089 8.22662 0.0832758 10.3663L6.03474 11.1279ZM7.3088 8.17712C8.08308 7.13208 8.89893 6.4089 9.73644 5.92758L6.74678 0.725468C5.09351 1.6756 3.6805 2.99552 2.48785 4.60523L7.3088 8.17712ZM9.70849 5.94344C9.47329 6.07528 9.20695 6.15715 8.93716 6.17993C8.67672 6.20192 8.4758 6.16393 8.35904 6.13044L10.0136 0.363084C9.02637 0.0798554 7.86384 0.0991213 6.77473 0.709607L9.70849 5.94344ZM8.67624 6.20308C8.52807 6.17751 8.3803 6.12593 8.24642 6.05199C8.11517 5.9795 8.02741 5.90231 7.97824 5.85095L12.3124 1.7018C11.6366 0.995868 10.7528 0.472713 9.69642 0.290444L8.67624 6.20308Z" fill="black" mask="url(#path-1-outside-1_13_2)"/>
<defs>
<linearGradient id="paint0_linear_13_2" x1="-13.2233" y1="5.8059" x2="61.8677" y2="19.337" gradientUnits="userSpaceOnUse">
<stop stop-color="#6EF0B2"/>
<stop offset="1" stop-color="#9FFFD1"/>
</linearGradient>
</defs>
</svg>